<?xml version="1.0" standalone="no"?><!DOCTYPE svg PUBLIC "-//W3C//DTD SVG 1.1//EN" "http://www.w3.org/Graphics/SVG/1.1/DTD/svg11.dtd"><svg t="1706247996936" class="icon" viewBox="0 0 1024 1024" version="1.1" xmlns="http://www.w3.org/2000/svg" p-id="5358" xmlns:xlink="http://www.w3.org/1999/xlink" width="128" height="128"><path d="M510.976 43.52c-260.608 0-472.064 211.456-472.064 472.064 0 260.608 211.456 472.064 472.064 472.064 260.608 0 472.064-211.456 472.064-472.064 0-260.608-210.944-472.064-472.064-472.064z m349.696 306.176c21.504 45.056 34.304 94.72 36.864 147.456l-121.856-1.024 84.992-146.432z m-41.984-68.608l-199.168 2.56 44.032-123.392c61.44 26.112 114.688 68.096 155.136 120.832zM512 129.536c38.4 0 75.264 5.632 110.08 16.384l-46.08 129.536c-20.48-5.632-41.984-8.704-64-8.704-22.016 0-43.52 3.072-64 8.704l-47.616-129.024c35.328-10.752 72.704-16.896 111.616-16.896z m-156.16 33.28l47.616 123.392-203.264 2.56c39.424-54.784 93.184-98.304 155.648-125.952zM164.352 347.648L248.32 491.52l-121.856-1.024c3.584-50.688 16.896-98.816 37.888-142.848z m-38.4 183.808l137.216 1.024c2.56 39.424 14.336 76.288 32.768 108.544l-113.664 76.288c-33.28-54.272-53.76-117.76-56.32-185.856zM206.336 752.64l110.592-80.896c19.968 25.088 44.544 46.08 72.192 61.44l14.336 24.576-40.96 115.2c-61.952-26.112-115.712-68.096-156.16-120.32z m196.608 134.656l28.672-80.384 55.296 95.232c-28.672-2.048-56.832-7.168-83.968-14.848z m96.768-24.064L201.728 344.064l208.896 108.544c-6.656 15.36-10.752 31.744-10.752 49.664 0 58.368 40.448 106.496 94.72 119.296l5.12 241.664zM431.616 420.352L219.136 313.344H814.08l-203.264 103.424c-22.528-23.04-53.248-37.376-88.064-37.376-36.352 0-68.608 15.872-91.136 40.96z m101.376 203.264c62.976-5.12 112.128-57.344 112.128-121.856 0-19.456-5.12-37.376-12.8-53.76l200.192-107.52-299.52 525.312v-242.176z m7.68 278.016l60.416-103.936 32.768 85.504c-29.184 9.728-60.416 15.872-93.184 18.432z m127.488-31.744l-42.496-114.688 14.336-25.088c25.6-15.36 48.128-34.816 66.56-57.856l112.128 78.848c-39.424 51.2-90.624 92.672-150.528 118.784z m177.152-158.208l-114.176-75.776c16.384-29.696 26.624-63.488 29.696-98.816l137.216 1.024c-4.096 63.488-22.528 122.368-52.736 173.568z" fill="#ffffff" p-id="5359"></path></svg>