<?xml version="1.0" standalone="no"?><!DOCTYPE svg PUBLIC "-//W3C//DTD SVG 1.1//EN" "http://www.w3.org/Graphics/SVG/1.1/DTD/svg11.dtd"><svg t="1668089059399" class="icon" viewBox="0 0 1024 1024" version="1.1" xmlns="http://www.w3.org/2000/svg" p-id="25236" xmlns:xlink="http://www.w3.org/1999/xlink" width="200" height="200"><path d="M960 512c0 247.4-200.6 448-448 448-19.4 0-38.5-1.2-57.3-3.6-24.1-3.1-47.5-8.1-70.3-14.8C199.1 886.6 64 715.1 64 512 64 264.6 264.6 64 512 64c208.4 0 383.5 142.3 433.6 335 7.6 29.1 12.3 59.4 13.8 90.5 0.4 7.5 0.6 15 0.6 22.5z" fill="#5F2B88" p-id="25237"></path><path d="M960 512c0 247.4-200.6 448-448 448-19.4 0-38.5-1.2-57.3-3.6-24.1-3.1-47.5-8.1-70.3-14.8L218.8 775.9l596.4-507.3L945.6 399c7.6 29.1 12.3 59.4 13.8 90.5 0.4 7.5 0.6 15 0.6 22.5z" fill="#3D2652" p-id="25238"></path><path d="M155.3 763h589.1v31.7H155.3z" fill="#3892CB" p-id="25239"></path><path d="M447.7 763h296.7v31.7H447.7z" fill="#0476AF" p-id="25240"></path><path d="M753.3 775.8H146.4c-9.9 0-18-8.1-18-18V397.5c0-9.9 8.1-18 18-18h606.9c9.9 0 18 8.1 18 18v360.1c0.1 10-8 18.2-18 18.2z" fill="#8758EF" p-id="25241"></path><path d="M777.8 790.7c0 22.6-18.2 40.9-40.9 40.9h-575c-22.6 0-40.9-18.4-40.9-40.9h656.8zM771.4 400.4V755c0 11.5-9.4 20.8-20.8 20.8H149.2c-11.5 0-20.8-9.4-20.8-20.8V400.4c0-11.5 9.4-20.8 20.8-20.8h601.3c11.6-0.1 20.9 9.3 20.9 20.8z" fill="#4BB6EF" p-id="25242"></path><path d="M155.3 406.4h589.1v342.3H155.3z" fill="#B9FCF3" p-id="25243"></path><path d="M216.4 442.7h139.3v172.1H216.4z" fill="#FFFFFF" p-id="25244"></path><path d="M771.4 400.4V755c0 11.5-9.4 20.8-20.8 20.8H447.7V379.5h302.9c11.5 0 20.8 9.4 20.8 20.9z" fill="#3892CB" p-id="25245"></path><path d="M447.7 406.4h296.7v342.3H447.7z" fill="#96F5E6" p-id="25246"></path><path d="M777.8 790.7c0 22.6-18.2 40.9-40.9 40.9H447.7v-40.9h330.1z" fill="#3892CB" p-id="25247"></path><path d="M216.4 638.8H679v24H216.4zM216.4 688.4H679v24H216.4z" fill="#FFFFFF" p-id="25248"></path><path d="M447.7 638.8H679v24H447.7zM447.7 688.4H679v24H447.7z" fill="#E8E4EF" p-id="25249"></path><path d="M815.2 268.6v334.5c0 27.6-22.4 50-50 50h-355c-27.6 0-50-22.4-50-50V138.4c0-27.6 22.4-50 50-50H635l180.2 180.2z" fill="#E95C94" p-id="25250"></path><path d="M815.2 268.6v334.5c0 27.6-22.4 50-50 50H587.8V88.4H635l180.2 180.2z" fill="#E02B6C" p-id="25251"></path><path d="M815.2 268.6l-81.7-81.7-83.2 67.8 32.7 32.7c9 9 21.1 14 33.8 14h98.4v-32.8z" fill="#BA0C52" p-id="25252"></path><path d="M815.2 268.6H685.1c-27.6 0-50-22.4-50-50V88.4l180.1 180.2z" fill="#E95C94" p-id="25253"></path><path d="M735.7 410.5c0 4.1-1.7 7.8-4.3 10.4-2.7 2.7-6.3 4.3-10.4 4.3H454.4c-8.2 0-14.8-6.6-14.8-14.8 0-4.1 1.7-7.8 4.3-10.4s6.3-4.3 10.4-4.3H721c8.1 0.1 14.7 6.7 14.7 14.8zM735.7 495.5c0 4.1-1.7 7.8-4.3 10.4-2.7 2.7-6.3 4.3-10.4 4.3H454.4c-8.2 0-14.8-6.6-14.8-14.8 0-4.1 1.7-7.8 4.3-10.4s6.3-4.3 10.4-4.3H721c8.1 0 14.7 6.6 14.7 14.8zM732.7 316.1c0 4.1-1.7 7.8-4.3 10.4-2.7 2.7-6.3 4.3-10.4 4.3H575.1c-8.2 0-14.8-6.6-14.8-14.8 0-4.1 1.7-7.8 4.3-10.4 2.7-2.7 6.3-4.3 10.4-4.3h142.9c8.2 0.1 14.8 6.6 14.8 14.8z" fill="#FFFFFF" p-id="25254"></path><path d="M717.9 330.9H587.8v-29.5H718c8.2 0 14.8 6.6 14.8 14.8 0 4.1-1.7 7.8-4.3 10.4s-6.5 4.3-10.6 4.3zM735.7 495.5c0 4.1-1.7 7.8-4.3 10.4-2.7 2.7-6.3 4.3-10.4 4.3H587.8v-29.5H721c8.1 0 14.7 6.6 14.7 14.8zM720.9 425.3H587.8v-29.5H721c8.2 0 14.8 6.6 14.8 14.8 0 4.1-1.7 7.8-4.3 10.4-2.7 2.6-6.5 4.3-10.6 4.3z" fill="#E8E4EF" p-id="25255"></path><path d="M423.5 178.5h88.6v152.4h-88.6z" fill="#FFFFFF" p-id="25256"></path></svg>